<svg xmlns="http://www.w3.org/2000/svg" viewBox="0 0 280 280" role="img" aria-label="Zoë véos">
  <defs>
    <linearGradient id="leafA" x1="0" y1="0" x2="1" y2="1">
      <stop offset="0%" stop-color="#9BB59A"/>
      <stop offset="100%" stop-color="#6E8F72"/>
    </linearGradient>
    <linearGradient id="leafB" x1="1" y1="0" x2="0" y2="1">
      <stop offset="0%" stop-color="#C9D6B8"/>
      <stop offset="100%" stop-color="#8AA58C"/>
    </linearGradient>
    <linearGradient id="blush" x1="0" y1="0" x2="1" y2="1">
      <stop offset="0%" stop-color="#E7C4B8"/>
      <stop offset="100%" stop-color="#D7A99A"/>
    </linearGradient>
  </defs>
  <g fill="none" stroke-linecap="round" stroke-linejoin="round">
    <path d="M140 28c-18 10-28 28-22 46" stroke="#8FA88A" stroke-width="1.4"/>
    <path d="M140 28c18 10 28 28 22 46" stroke="#8FA88A" stroke-width="1.4"/>
    <ellipse cx="108" cy="46" rx="16" ry="8" transform="rotate(-35 108 46)" fill="url(#leafB)" opacity=".9"/>
    <ellipse cx="172" cy="46" rx="16" ry="8" transform="rotate(35 172 46)" fill="url(#leafA)" opacity=".9"/>
    <ellipse cx="92" cy="70" rx="18" ry="8" transform="rotate(-18 92 70)" fill="url(#leafA)"/>
    <ellipse cx="188" cy="70" rx="18" ry="8" transform="rotate(18 188 70)" fill="url(#leafB)"/>
    <ellipse cx="78" cy="98" rx="17" ry="7.5" transform="rotate(-8 78 98)" fill="url(#leafB)"/>
    <ellipse cx="202" cy="98" rx="17" ry="7.5" transform="rotate(8 202 98)" fill="url(#leafA)"/>
    <ellipse cx="72" cy="128" rx="18" ry="8" fill="url(#leafA)"/>
    <ellipse cx="208" cy="128" rx="18" ry="8" fill="url(#leafB)"/>
    <ellipse cx="80" cy="160" rx="17" ry="7.5" transform="rotate(12 80 160)" fill="url(#leafB)"/>
    <ellipse cx="200" cy="160" rx="17" ry="7.5" transform="rotate(-12 200 160)" fill="url(#leafA)"/>
    <ellipse cx="96" cy="188" rx="16" ry="8" transform="rotate(28 96 188)" fill="url(#leafA)"/>
    <ellipse cx="184" cy="188" rx="16" ry="8" transform="rotate(-28 184 188)" fill="url(#leafB)"/>
    <ellipse cx="118" cy="210" rx="15" ry="7" transform="rotate(42 118 210)" fill="url(#leafB)"/>
    <ellipse cx="162" cy="210" rx="15" ry="7" transform="rotate(-42 162 210)" fill="url(#leafA)"/>
    <ellipse cx="140" cy="222" rx="14" ry="6.5" fill="url(#leafA)"/>
    <circle cx="126" cy="58" r="3.2" fill="url(#blush)"/>
    <circle cx="158" cy="62" r="2.6" fill="url(#blush)"/>
    <circle cx="84" cy="118" r="2.8" fill="url(#blush)"/>
    <circle cx="196" cy="122" r="3" fill="url(#blush)"/>
    <circle cx="112" cy="198" r="2.5" fill="url(#blush)"/>
    <circle cx="170" cy="196" r="2.7" fill="url(#blush)"/>
    <path d="M58 150c8-6 14-4 18 4" stroke="#B7C6B0" stroke-width="1.2"/>
    <path d="M222 148c-8-6-14-4-18 4" stroke="#B7C6B0" stroke-width="1.2"/>
  </g>
</svg>
